<svg xmlns="http://www.w3.org/2000/svg" viewBox="0 0 453.82 180"><defs><style>.cls-1{fill:#efa220;}</style></defs><title>Bitinka amarillo</title><g id="Capa_2" data-name="Capa 2"><g id="Capa_1-2" data-name="Capa 1"><path class="cls-1" d="M269.18,119.15V86.93A6.81,6.81,0,0,1,276,80.12h0a6.81,6.81,0,0,1,6.81,6.81v32.22a6.72,6.72,0,0,1-6.72,6.72h-.18A6.72,6.72,0,0,1,269.18,119.15Z"/><circle class="cls-1" cx="275.99" cy="68.01" r="6.81"/><path class="cls-1" d="M296.57,125.9h0a6.89,6.89,0,0,0,6.89-6.89V82a6.73,6.73,0,0,0-6.74-6.73h-.3A6.73,6.73,0,0,0,289.68,82v37A6.89,6.89,0,0,0,296.57,125.9Z"/><path class="cls-1" d="M340.12,89a19.51,19.51,0,0,0-3.64-7.9c-3.45-4.46-9.23-7.14-17.32-6.68a24.63,24.63,0,0,0-8.1,1.78,5.46,5.46,0,0,0-3.35,5.06h0A5.48,5.48,0,0,0,314,86.72a21,21,0,0,1,3.55-.22,12.84,12.84,0,0,1,5.77,1.12,6.65,6.65,0,0,1,2.94,3.09,12.58,12.58,0,0,1,1.06,4.57c.1,1.73.15,3.54.15,5.44V119a6.89,6.89,0,0,0,6.89,6.89h0a6.89,6.89,0,0,0,6.89-6.89V100.78A52.11,52.11,0,0,0,340.12,89Z"/><path class="cls-1" d="M385.8,75.26a5.78,5.78,0,0,1,4.08,9.88l-7.35,7.33-20.87,20.87v5.94a6.61,6.61,0,0,1-6.61,6.62h-.24a6.62,6.62,0,0,1-6.62-6.62V60.51a6.61,6.61,0,0,1,6.62-6.61h.24a6.61,6.61,0,0,1,6.61,6.61V95.82l19.8-19a5.77,5.77,0,0,1,4-1.6Zm-3.26,33.91.44.42s3.5,3.45,4.71,4.66l2.89,2.89c.71.71,1.43,1.42,2.18,2.12s1.6,1.57,2.58,2.59l.23.23A2.25,2.25,0,0,1,394,125.9H382.83l-.1-.1-6.17-6.18a7.23,7.23,0,0,1,0-10.23l.17-.17A4.16,4.16,0,0,1,382.54,109.17Z"/><path class="cls-1" d="M440.56,81v.19a19.38,19.38,0,0,0-6.79-5.68,20.59,20.59,0,0,0-9.22-2,25.15,25.15,0,0,0-10.13,2.07A26.48,26.48,0,0,0,400.5,89.57a26,26,0,0,0,0,20.36,26.53,26.53,0,0,0,5.62,8.3,25.89,25.89,0,0,0,8.3,5.57,25.63,25.63,0,0,0,10.13,2,21.84,21.84,0,0,0,7.31-1.16,5.8,5.8,0,0,0,3.84-5.48h0a5.82,5.82,0,0,0-7.05-5.7,11.28,11.28,0,0,1-2.27.29,13.45,13.45,0,0,1-5.47-1.12,15.22,15.22,0,0,1-4.51-3,14.1,14.1,0,0,1-3.09-4.47,13.34,13.34,0,0,1-1.11-5.39,13.91,13.91,0,0,1,1.11-5.54,13.26,13.26,0,0,1,3.09-4.47,15.45,15.45,0,0,1,4.51-3,13.28,13.28,0,0,1,5.47-1.12,14.33,14.33,0,0,1,10,4.06,14.1,14.1,0,0,1,3.09,4.47,13.53,13.53,0,0,1,1.12,5.48v18.75a6.63,6.63,0,0,0,6.63,6.64h0a6.63,6.63,0,0,0,6.63-6.64V81a6.63,6.63,0,0,0-6.63-6.63h0A6.63,6.63,0,0,0,440.56,81Z"/><path class="cls-1" d="M198.5,87.26a21.39,21.39,0,0,1,6.25,7.33,20.33,20.33,0,0,1,2.35,9.67,20.77,20.77,0,0,1-1.69,8.4,22.47,22.47,0,0,1-4.6,6.86,21.44,21.44,0,0,1-6.86,4.66,21.09,21.09,0,0,1-8.35,1.69H170.18a6.24,6.24,0,0,1-6.24-6.2h0a6.24,6.24,0,0,1,6.24-6.29h15.63a5.23,5.23,0,0,0,2.71-.77,8.2,8.2,0,0,0,2.2-1.9,9.66,9.66,0,0,0,1.49-2.56,7.86,7.86,0,0,0,.56-2.86,8.54,8.54,0,0,0-.56-3,8.4,8.4,0,0,0-1.59-2.62,9.23,9.23,0,0,0-2.31-1.84,5.42,5.42,0,0,0-2.71-.72H159.9V118.7a7.17,7.17,0,0,1-7.17,7.17h0a7.17,7.17,0,0,1-7.17-7.17V61.79a7.71,7.71,0,0,1,7.71-7.7h27.21a20.91,20.91,0,0,1,8.35,1.69,21.41,21.41,0,0,1,11.46,11.47A20.86,20.86,0,0,1,202,75.59a20.31,20.31,0,0,1-.92,6.2A22.76,22.76,0,0,1,198.5,87.26Zm-18-4.4a5.8,5.8,0,0,0,2.71-.66,8.88,8.88,0,0,0,2.31-1.74,7.64,7.64,0,0,0,1.59-2.57,9,9,0,0,0,0-6.24A8.24,8.24,0,0,0,185.5,69a8.08,8.08,0,0,0-2.31-1.79,5.69,5.69,0,0,0-2.71-.67H159.9V82.86Z"/><path class="cls-1" d="M213.91,119.06V86.93a6.81,6.81,0,0,1,6.81-6.81h0a6.81,6.81,0,0,1,6.81,6.81v32.13a6.81,6.81,0,0,1-6.81,6.81h0A6.81,6.81,0,0,1,213.91,119.06Z"/><circle class="cls-1" cx="220.72" cy="68.41" r="6.81"/><path class="cls-1" d="M256.73,80h-1.55V60.9a6.81,6.81,0,0,0-6.81-6.81h0a6.81,6.81,0,0,0-6.81,6.81V80H240a5.65,5.65,0,0,0-5.66,5.66h0A5.66,5.66,0,0,0,240,91.36h1.54v27.93a6.81,6.81,0,0,0,6.81,6.81h0a6.81,6.81,0,0,0,6.81-6.81V91.36h1.55a5.66,5.66,0,0,0,5.66-5.67h0A5.65,5.65,0,0,0,256.73,80Z"/><path class="cls-1" d="M35.3,87.54c7.14,5.84,2.59-14.2-10.77-14.45,0,0-4.05.06-4.54,3.49s4.18-3.87,11.5,6.52c0,0-.06,1.49-3.79,1.36s-5.07-3.52-8.28-2.12c0,0-3.11,8.35,1.42,10.16S28.15,81.69,35.3,87.54Z"/><path class="cls-1" d="M37.17,94.85a26.43,26.43,0,0,1-7.78,2.09c-.22,0-.44.06-.67.08-3.44,1.73-5,4-3.74,8.18,0,0,0,0,0,.06,2.09,3.2,5.11,5.44,8.11,4.39,0,0,2.57-1.28,1.13-4.74S34,99.32,35.48,97.4l2.35-2S38.92,94.27,37.17,94.85Z"/><path class="cls-1" d="M62.25,85.43A6.39,6.39,0,0,1,66,85.6c2.21.7,3.84,4,3.84,4s1.07,2.34.85.31-.53-4.94-3.26-5.93-5.9,1-5.9,1C60.39,86,62.25,85.43,62.25,85.43Z"/><path class="cls-1" d="M109.66,95.14c.4-.35.78-.71,1.16-1.09a28.13,28.13,0,0,0,8.3-20A32.41,32.41,0,0,0,86.75,41.64h-4V22.28h-20V41.64H28.16c.27-.4.57-.79.83-1.2a31.24,31.24,0,0,1,1-4.27c0-.14.08-.28.13-.42a76.24,76.24,0,0,1,6.53-14.47q.68-2.59,1.27-5.16l1.51-3.75a30.75,30.75,0,0,1,2.93-4.24,3.67,3.67,0,0,0,.37-4.5c-3.29,1.59-6.7,3.05-7.89,7.07-.19-1-.25-2-1.32-.93-1.78,1.84-3.51,3.75-5.13,5.74C25.69,18.88,25,23.2,23.28,27.06a22.86,22.86,0,0,0-1.14,3.29,91.27,91.27,0,0,1,.07-11.81c-.33-1.74-.7-3.48-1.08-5.2l-.25-4a31.55,31.55,0,0,1,.81-5.12A3.66,3.66,0,0,0,20.07,0C17.79,2.86,15.35,5.65,16,9.78c-.61-.84-1.1-1.72-1.59-.26-.81,2.43-1.55,4.9-2.14,7.39-1,4.22.19,8.43.34,12.64s1.66,8.57,3.44,12.59c.2.44.39.92.63,1.37L18,48.08a95.88,95.88,0,0,0-5.42,13.65c-1,1.69-3.06,6.42-2.23,14.16,0,0-5.68,6-10.24,21.14,0,0-1.4,6.51,7.71,8.29,0,0-.52,3.1-2.52,4s2,4,2,4l-2,4.12,3.15,6.14-1.27,5.15s-.77,9.67,10.34,9.84a13.66,13.66,0,0,0,2.68-.17l14.56,6.26,3.79,23.41-1.38,5.31c0,1.06-5.74,9.46,14.78,5.63a92,92,0,0,0,10.94-6.81v7.62h20V159.54H90.2a37.42,37.42,0,0,0,37.44-37.44A29.16,29.16,0,0,0,109.66,95.14ZM31,15.53c.2,1.33.69,2.6.89,3.81l0,0v.06l.06.09c.16.35,0,.94.27,1.24s.66.08,1-.24l.18-.23a16.87,16.87,0,0,1,2.46-3.43c-.91,1.41-.28,3.13-.71,4.68-.21.21-.41.48-.62.74a6,6,0,0,0-4.15,1c0-.28-.07-.57-.11-.81-.28-2.18-.47-3.21-1-3.72C29.91,17.41,30.52,16.31,31,15.53Zm-3.41,6.75A35.68,35.68,0,0,1,27.9,26c0,.44.06,1.58.93,1.94s1.91-.58,3.05-1.83c.17-.19.37-.42.59-.64a54.77,54.77,0,0,0-2.39,5.33,6,6,0,0,0-3.66,1.05c-.05-.28-.08-.56-.11-.81a9.71,9.71,0,0,0-.79-3.46C26.17,25.66,26.87,23.87,27.57,22.28ZM23.1,37.34c.21-1.41.48-2.77.79-4.1,0,.42.06.88.08,1.36s.06,1.58.93,1.94S26.81,36,28,34.71c.31-.34.71-.79,1.11-1.17-1.56,4.38-2.57,8.17-2.57,8.17a1.53,1.53,0,0,1-.76.64l-1.13.39-.94-.18a1.2,1.2,0,0,1-.61-.26q.32-1.56.51-3.15C23.38,38.55,23.23,38,23.1,37.34Zm-.27,10.51c.26-.34.54-.65.82-1l6.06,2.47,32.39,13v8.78l-39-11.34C21.83,57,22.16,52,22.83,47.85ZM14.4,20c0-1.73.1-3.17.19-4.19.76,1.12,1.75,2.05,2.45,3.05l0,0s0,0,0,.05a.47.47,0,0,1,.09.06c.3.24.45.82.78,1s.63-.21.75-.62c0-.1.05-.19.07-.29a17.4,17.4,0,0,1,.73-4.16c-.2,1.67,1.11,3,1.39,4.53a12.41,12.41,0,0,0-.44,2,5.94,5.94,0,0,0-3.08,2.4L17,23.14c-1.2-2.09-1.77-3-2.54-3.13Zm.49,9.23c-.22-1.85-.36-3.6-.43-5.23.46.79,1,1.88,1.71,3.3.18.4.65,1.44,1.59,1.44s1.55-1.26,2.13-2.85c.09-.26.2-.56.32-.87,0,1.87.07,3.87.23,5.83a5.83,5.83,0,0,0-2.61,2.21l-.42-.7C16.22,30.29,15.66,29.42,14.89,29.24Zm1,5.84c.22.44.46.92.71,1.46S17.26,38,18.2,38c1.09,0,1.55-1.26,2.12-2.86.12-.33.27-.74.44-1.14.11,1,.23,1.9.35,2.75-.09,1.06-.14,2.12-.17,3.17a15.59,15.59,0,0,0,0,1.81,2.79,2.79,0,0,0,.27.93A3.24,3.24,0,0,0,21,43l-1.32.35a1.41,1.41,0,0,1-1.27-.26A50.66,50.66,0,0,1,15.9,35.08Zm97.75,110.47a33,33,0,0,1-23.45,9.7H78.51v20.29H67.13v-6.76C70.25,166,72.92,163,74,159.91c0,0-4.3-.49-12.83,2.13s-11.84,11.6-11.84,11.6S36.83,166.43,42,153.57s1.93-14.07,1.93-14.07-10-4.89-15.91-4.56l-2.1.12c4.9-2.8,24.23-5.54,24.23-5.54s3.36-.41,2.94-1.25-1.13-.2-2.83-.59c-4-.91-11.09-2.84-14.08-5.58-4.27-3.9-1.74,7.84-10.62,8.75,0,0-3.59.76-5,2.77S12.67,132,12.67,132,8.8,130,10,126.36c0,0,.2-1.75,2.78-.45s6.24,1.52,7.42.69c0,0-8.3-5.75-9.24-8.43-.3-.88-2.57-1.16-2.57-1.16l1.73-3.41,6.94,3a7.58,7.58,0,0,1,2.33,2.24,5.13,5.13,0,0,1,1.18-2.22l0-.11c-1.27-2.77-3.88-5.6-8.93-6.8l-2.76.07s2.12-2.73,2.37-4.9c0,0,5,3.33,8.06-2.2A15.91,15.91,0,0,0,5.5,99s-.83.31.11-3.65S9.34,80.85,16.54,76.26c0,0-3.72-9.18.45-13.56,9.82,2,33.29,6.93,45.11,12.25v2h0c-6.23,2.23-9.4,8-10.48,10.48A19.16,19.16,0,0,0,38,107.62,19.45,19.45,0,0,0,53,124.52a18.44,18.44,0,0,0,9.55-.34v7c-4.2,4.69-12.88,15.47-12.74,24.12,0,0,.25,2.23,1.21,1.79,3-1.35,6.82-11.11,14.09-7.36s7.55.38,7.55.38-1.91-4.22-3.61-9.15H79.51A17.69,17.69,0,0,0,97.19,122.6c-.34-9.62-8.64-17-18.27-17H76.21c0-.38,0-.76,0-1.14a19.18,19.18,0,0,0-.91-4.52,36.16,36.16,0,0,0,1.89-8.23A15.23,15.23,0,0,0,90.71,76.54V74.83A16.35,16.35,0,0,0,74.35,58.47H62.7C48,52.91,37.87,48.64,31.75,45.92H67.13V26.57H78.51V45.92h8.24A28.11,28.11,0,0,1,114.83,74a23.89,23.89,0,0,1-7,17,24.45,24.45,0,0,1-3.8,3.09l-4.07,2.66L104.64,98a24.86,24.86,0,0,1,18.72,24.12A33,33,0,0,1,113.65,145.55ZM69,80c6.69,3.32,5.24,13.57,5.24,13.57v.22A7.45,7.45,0,0,1,73.5,96a19.16,19.16,0,0,0-17.84-9.28C57.79,83.58,63.11,77.08,69,80Zm-2.56-5V62.75h7.94a12.14,12.14,0,0,1,12.1,12.1v1.69a10.93,10.93,0,0,1-9.25,10.78c-.79-8.41-6.51-10.95-6.51-10.95a18.77,18.77,0,0,0-4.21-.26Zm.47,47.34a19.16,19.16,0,0,0,8.94-12.45h3.26a13.72,13.72,0,0,1,13.85,12.93,13.42,13.42,0,0,1-13.4,13.91H67.71c-.33-1.19-.63-2.36-.85-3.46Zm-6.61-5a11.9,11.9,0,1,1,8.63-10A11.92,11.92,0,0,1,60.25,117.3Z"/></g></g></svg>