<?xml version="1.0" encoding="utf-8"?>
<!-- Generator: Adobe Illustrator 22.1.0, SVG Export Plug-In . SVG Version: 6.00 Build 0)  -->
<svg version="1.1" id="Capa_1" xmlns="http://www.w3.org/2000/svg" xmlns:xlink="http://www.w3.org/1999/xlink" x="0px" y="0px"
	 viewBox="0 0 149.8 144.6" style="enable-background:new 0 0 149.8 144.6;" xml:space="preserve">
<style type="text/css">
	.st0{fill:#F4AD47;}
	.st1{fill:#3E3E3E;}
	.st2{fill:#FFFFFF;}
	.st3{fill:#434343;}
</style>
<g>
	<g>
		<path class="st0" d="M67.1,77.1l-14.6,3.8c-3.6,1.3-5.9,4.8-5.9,8.4v5.2h52.7v-5.2c0-3.6-2.4-7.1-5.9-8.4l-14.5-3.8"/>
		<path class="st1" d="M99.8,95H46.1v-5.7c0-3.9,2.6-7.6,6.3-8.9L67,76.6c0.3-0.1,0.5,0.1,0.6,0.4s-0.1,0.5-0.4,0.6l-14.6,3.8
			c-3.3,1.2-5.6,4.4-5.6,7.9V94h51.7v-4.7c0-3.5-2.3-6.8-5.6-7.9l-14.5-3.8c-0.3-0.1-0.4-0.3-0.4-0.6c0.1-0.3,0.4-0.4,0.6-0.4
			l14.5,3.8c3.7,1.3,6.3,5,6.3,8.9V95H99.8z"/>
	</g>
	<g>
		<polygon class="st2" points="73,84.7 66.1,94.5 79.8,94.5 		"/>
		<path class="st1" d="M79.8,95H66.1c-0.2,0-0.4-0.1-0.4-0.3c-0.1-0.2-0.1-0.4,0-0.5l6.9-9.8c0.2-0.3,0.6-0.3,0.8,0l6.9,9.8
			c0.1,0.2,0.1,0.4,0,0.5C80.2,94.9,80,95,79.8,95z M67.1,94h11.8L73,85.5L67.1,94z"/>
	</g>
	<g>
		<path class="st2" d="M70.2,78.6v2.9c0,1.8,0.8,3.2,2.7,3.2s2.7-1.3,2.7-3.2v-2.9"/>
		<path class="st1" d="M73,85.2c-2,0-3.2-1.4-3.2-3.7v-2.9c0-0.3,0.2-0.5,0.5-0.5s0.5,0.2,0.5,0.5v2.9c0,1.2,0.4,2.7,2.2,2.7
			s2.2-1.4,2.2-2.7v-2.9c0-0.3,0.2-0.5,0.5-0.5s0.5,0.2,0.5,0.5v2.9C76.2,83.8,75,85.2,73,85.2z"/>
	</g>
	<g>
		<path class="st3" d="M73,142.9c-39.4,0-71.5-32.1-71.5-71.5C1.5,32.1,33.6,0,73,0s71.5,32.1,71.5,71.5
			C144.4,110.8,112.4,142.9,73,142.9z M73,1C34.1,1,2.5,32.6,2.5,71.5s31.6,70.4,70.4,70.4s70.4-31.6,70.4-70.4S111.8,1,73,1z"/>
	</g>
	<g>
		<path class="st3" d="M73,123.6c-13.9,0-27-5.4-36.9-15.3l0,0c-9.9-9.9-15.3-23-15.3-36.9s5.4-27,15.3-36.9
			c20.3-20.3,53.4-20.3,73.8,0c9.9,9.9,15.3,23,15.3,36.9s-5.4,27-15.3,36.9S86.9,123.6,73,123.6z M73,20.3c-13.1,0-26.2,5-36.2,15
			c-9.7,9.7-15,22.5-15,36.2s5.3,26.5,15,36.2l0,0c9.7,9.7,22.5,15,36.2,15s26.5-5.3,36.2-15s15-22.5,15-36.2s-5.3-26.5-15-36.2
			C99.2,25.3,86.1,20.3,73,20.3z"/>
	</g>
	<circle class="st0" cx="73" cy="123.3" r="2"/>
	<circle class="st0" cx="73" cy="19.6" r="2"/>
	<circle class="st0" cx="124.6" cy="71.5" r="2"/>
	<circle class="st0" cx="143.9" cy="71.5" r="2"/>
	<circle class="st0" cx="21.3" cy="71.5" r="2"/>
	<circle class="st0" cx="2" cy="71.5" r="2"/>
	<g>
		<circle class="st2" cx="124.6" cy="119.4" r="24.7"/>
		<path class="st3" d="M124.6,144.6c-13.9,0-25.2-11.3-25.2-25.2s11.3-25.2,25.2-25.2s25.2,11.3,25.2,25.2
			C149.8,133.3,138.5,144.6,124.6,144.6z M124.6,95.2c-13.3,0-24.2,10.9-24.2,24.2s10.9,24.2,24.2,24.2s24.2-10.9,24.2-24.2
			S138,95.2,124.6,95.2z"/>
	</g>
	<g>
		
			<ellipse transform="matrix(8.248049e-02 -0.9966 0.9966 8.248049e-02 -4.6702 233.7273)" class="st2" cx="124.6" cy="119.4" rx="18" ry="18"/>
		<path class="st3" d="M124.6,137.9c-4.9,0-9.6-1.9-13.1-5.4l0,0l0,0c-7.2-7.2-7.2-18.9,0-26.2c3.5-3.5,8.1-5.4,13.1-5.4
			c5,0,9.6,1.9,13.1,5.4c7.2,7.2,7.2,18.9,0,26.2C134.2,136,129.6,137.9,124.6,137.9z M124.6,101.9c-4.7,0-9.1,1.8-12.4,5.1
			c-6.8,6.8-6.8,17.9,0,24.7l0,0c3.3,3.3,7.7,5.1,12.4,5.1s9.1-1.8,12.4-5.1c6.8-6.8,6.8-17.9,0-24.7
			C133.7,103.7,129.3,101.9,124.6,101.9z"/>
	</g>
	<g>
		<path class="st0" d="M127.2,116.8H122c-2,1.5-4.8,5.3-4.8,7.7c0,3.3,2.3,5.5,7.4,5.5s7.4-2.2,7.4-5.5
			C132,122.1,129.3,118.2,127.2,116.8z"/>
		<path class="st1" d="M124.6,130.4c-6.8,0-7.8-3.7-7.8-5.9c0-2.7,3-6.6,5-8l0.1-0.1h5.4l0.1,0.1c2,1.4,5,5.4,5,8
			C132.4,126.7,131.4,130.4,124.6,130.4z M122.2,117.1c-2.1,1.5-4.6,5.2-4.6,7.4c0,3.4,2.4,5.2,7,5.2s7-1.8,7-5.2
			c0-2.2-2.5-5.8-4.6-7.4H122.2z"/>
	</g>
	<g>
		<path class="st0" d="M129.9,110.2l-3.8,1.4l-1.4-2.9l-1.4,2.9l-3.8-1.4c0,0,2.4,2.9,2.4,5.2h5.7
			C127.5,113.1,129.9,110.2,129.9,110.2z"/>
		<path class="st1" d="M127.5,115.8h-5.7c-0.2,0-0.4-0.2-0.4-0.4c0-2.2-2.3-5-2.3-5c-0.1-0.1-0.1-0.3,0-0.5c0.1-0.1,0.3-0.2,0.4-0.1
			l3.5,1.3l1.3-2.6c0.1-0.3,0.5-0.3,0.7,0l1.3,2.6l3.5-1.3c0.2-0.1,0.3,0,0.4,0.1c0.1,0.1,0.1,0.3,0,0.5c0,0-2.3,2.8-2.3,5
			C127.9,115.7,127.7,115.8,127.5,115.8z M122.1,115.1h5c0.1-1.5,1-3.1,1.7-4.1l-2.6,1c-0.2,0.1-0.4,0-0.5-0.2l-1.1-2.2l-1.1,2.2
			c-0.1,0.2-0.3,0.2-0.5,0.2l-2.6-1C121.1,112,122,113.6,122.1,115.1z"/>
	</g>
	<g>
		<g>
			<path class="st1" d="M124.6,127.9c-0.3,0-0.5-0.2-0.5-0.5v-0.7c0-0.3,0.2-0.5,0.5-0.5s0.5,0.2,0.5,0.5v0.7
				C125.1,127.7,124.9,127.9,124.6,127.9z"/>
		</g>
		<g>
			<path class="st1" d="M124.6,121.3c-0.3,0-0.5-0.2-0.5-0.5v-0.7c0-0.3,0.2-0.5,0.5-0.5s0.5,0.2,0.5,0.5v0.7
				C125.1,121.1,124.9,121.3,124.6,121.3z"/>
		</g>
		<g>
			<path class="st1" d="M124.6,127.2c-1.1,0-2-0.9-2-2c0-0.3,0.2-0.5,0.5-0.5s0.5,0.2,0.5,0.5c0,0.5,0.4,1,1,1c0.5,0,1-0.4,1-1
				c0-0.5-0.4-1-1-1c-1.1,0-2-0.9-2-2s0.9-2,2-2s2,0.9,2,2c0,0.3-0.2,0.5-0.5,0.5s-0.5-0.2-0.5-0.5c0-0.5-0.4-1-1-1
				c-0.5,0-1,0.4-1,1c0,0.5,0.4,1,1,1c1.1,0,2,0.9,2,2C126.6,126.3,125.7,127.2,124.6,127.2z"/>
		</g>
	</g>
	<g>
		<rect x="120.9" y="115.4" class="st2" width="7.5" height="1.6"/>
		<path class="st1" d="M128.4,117.4h-7.5c-0.2,0-0.4-0.2-0.4-0.4v-1.6c0-0.2,0.2-0.4,0.4-0.4h7.5c0.2,0,0.4,0.2,0.4,0.4v1.6
			C128.8,117.2,128.6,117.4,128.4,117.4z M121.2,116.6h6.8v-0.8h-6.8V116.6z"/>
	</g>
	<g>
		<path class="st2" d="M73,79.2c3.4,0,11.5-4.4,11.5-10.9c3.4,0,3.4-6.5,0-6.5l-1.1-5.4c-9.2,0-9.2-3.3-10.3-4.4
			c-1.1,1.1-1.1,4.4-10.3,4.4l-1.1,5.4c-3.4,0-3.4,6.5,0,6.5C61.5,74.9,69.5,79.2,73,79.2z"/>
		<path class="st1" d="M73,79.7c-3.5,0-11.6-4.2-12-10.9c-1.7-0.3-2.6-2-2.6-3.7c0-1.7,0.9-3.5,2.7-3.7l1.1-5.1
			c0-0.2,0.3-0.4,0.5-0.4c7.2,0,8.5-2,9.3-3.3c0.2-0.3,0.4-0.6,0.7-0.9c0.2-0.2,0.5-0.2,0.7,0c0.3,0.2,0.5,0.6,0.7,0.9
			c0.8,1.3,2.1,3.3,9.3,3.3c0.2,0,0.4,0.2,0.5,0.4l1.1,5.1c1.8,0.2,2.7,2,2.7,3.7c0,1.7-0.9,3.5-2.6,3.7
			C84.6,75.5,76.4,79.7,73,79.7z M63.1,56.9l-1.1,5c0,0.2-0.3,0.4-0.5,0.4c-1.4,0-2.1,1.4-2.1,2.8c0,1.3,0.6,2.8,2.1,2.8
			c0.3,0,0.5,0.2,0.5,0.5c0,6.2,7.8,10.4,11,10.4s11-4.1,11-10.4c0-0.3,0.2-0.5,0.5-0.5c1.4,0,2.1-1.4,2.1-2.8
			c0-1.3-0.6-2.8-2.1-2.8c-0.2,0-0.4-0.2-0.5-0.4l-1.1-5c-7.4-0.1-8.9-2.4-9.8-3.8c0-0.1-0.1-0.2-0.1-0.3c0,0.1-0.1,0.2-0.2,0.2
			C71.9,54.5,70.5,56.8,63.1,56.9z"/>
	</g>
	<g>
		<path class="st1" d="M86.7,63.9C86.7,63.9,86.6,63.9,86.7,63.9c-0.3,0-0.5-0.3-0.5-0.6l1.2-8.2c0,0,0.3-3.4-2.3-6.3
			c-2.4-2.7-6.5-4-12.1-4c-5.7,0-9.7,1.4-12.1,4c-2.6,2.9-2.3,6.3-2.3,6.3l1.2,8.1c0,0.3-0.2,0.5-0.4,0.6c-0.3,0-0.5-0.2-0.6-0.4
			l-1.2-8.2c0-0.2-0.4-3.9,2.5-7.1c2.6-2.9,6.9-4.4,12.9-4.4s10.3,1.5,12.9,4.4c2.9,3.2,2.5,6.9,2.5,7.1l-1.2,8.2
			C87.2,63.8,86.9,63.9,86.7,63.9z"/>
	</g>
	<g>
		<path class="st1" d="M70.7,64.5c-0.3,0-0.5-0.2-0.5-0.5c0-0.2,0-0.3-0.1-0.4c-0.2-0.2-0.8-0.2-1.4-0.2h-0.3h-0.3
			c-0.6,0-1.2,0-1.4,0.2c-0.1,0.1-0.1,0.2-0.1,0.4c0,0.3-0.2,0.5-0.5,0.5s-0.5-0.2-0.5-0.5c0-0.5,0.1-0.9,0.4-1.1
			c0.5-0.5,1.2-0.5,2.1-0.5h0.3h0.3c0.9,0,1.6,0,2.1,0.5c0.3,0.3,0.4,0.6,0.4,1.1C71.2,64.3,71,64.5,70.7,64.5z"/>
	</g>
	<g>
		<path class="st1" d="M79.8,64.5c-0.3,0-0.5-0.2-0.5-0.5c0-0.2,0-0.3-0.1-0.4c-0.2-0.2-0.8-0.2-1.4-0.2h-0.3h-0.3
			c-0.6,0-1.2,0-1.4,0.2c-0.1,0.1-0.1,0.2-0.1,0.4c0,0.3-0.2,0.5-0.5,0.5s-0.5-0.2-0.5-0.5c0-0.5,0.1-0.9,0.4-1.1
			c0.5-0.5,1.2-0.5,2.1-0.5h0.3h0.3c0.9,0,1.6,0,2.1,0.5c0.3,0.3,0.4,0.6,0.4,1.1C80.3,64.3,80.1,64.5,79.8,64.5z"/>
	</g>
</g>
</svg>
