<?xml version="1.0" encoding="utf-8"?>
<!-- Generator: Adobe Illustrator 22.1.0, SVG Export Plug-In . SVG Version: 6.00 Build 0)  -->
<svg version="1.1" id="Capa_1" xmlns="http://www.w3.org/2000/svg" xmlns:xlink="http://www.w3.org/1999/xlink" x="0px" y="0px"
	 viewBox="0 0 148.3 144.6" style="enable-background:new 0 0 148.3 144.6;" xml:space="preserve">
<style type="text/css">
	.st0{fill:#434343;}
	.st1{fill:#F4AD47;}
	.st2{fill:#FFFFFF;}
	.st3{fill:#3E3E3E;}
</style>
<g>
	<g>
		<path class="st0" d="M72.2,142.9c-39,0-70.7-31.7-70.7-70.7S33.2,1.5,72.2,1.5s70.7,31.7,70.7,70.7S111.2,142.9,72.2,142.9z
			 M72.2,2.5C33.8,2.5,2.5,33.8,2.5,72.2s31.3,69.7,69.7,69.7s69.7-31.3,69.7-69.7S110.7,2.5,72.2,2.5z"/>
	</g>
	<g>
		<path class="st0" d="M72.2,123.8c-13.2,0-26.4-5-36.5-15.1l0,0c-20.1-20.1-20.1-52.9,0-73c20.1-20.1,52.9-20.1,73,0
			c20.1,20.1,20.1,52.9,0,73C98.7,118.8,85.4,123.8,72.2,123.8z M36.4,108c19.7,19.7,51.9,19.7,71.6,0c19.7-19.7,19.7-51.9,0-71.6
			c-19.7-19.7-51.9-19.7-71.6,0C16.7,56.2,16.7,88.3,36.4,108L36.4,108z"/>
	</g>
	<circle class="st1" cx="72.2" cy="2" r="2"/>
	<circle class="st1" cx="72.2" cy="123.6" r="2"/>
	<circle class="st1" cx="72.2" cy="20.9" r="2"/>
	<circle class="st1" cx="72.2" cy="142.5" r="2"/>
	<circle class="st1" cx="123.4" cy="72.2" r="2"/>
	<circle class="st1" cx="142.4" cy="72.2" r="2"/>
	<circle class="st1" cx="21.1" cy="72.2" r="2"/>
	<circle class="st1" cx="2" cy="72.2" r="2"/>
	<g>
		<circle class="st2" cx="123.4" cy="119.7" r="24.5"/>
		<path class="st0" d="M123.4,144.6c-13.8,0-25-11.2-25-25c0-13.8,11.2-25,25-25c13.8,0,25,11.2,25,25
			C148.3,133.5,137.1,144.6,123.4,144.6z M123.4,95.7c-13.2,0-24,10.7-24,24s10.7,24,24,24s24-10.7,24-24S136.6,95.7,123.4,95.7z"/>
	</g>
	<g>
		<circle class="st2" cx="123.4" cy="119.7" r="17.8"/>
		<path class="st0" d="M123.4,138c-4.9,0-9.5-1.9-12.9-5.4l0,0c-7.1-7.1-7.1-18.8,0-25.9c3.5-3.5,8.1-5.4,12.9-5.4
			c4.9,0,9.5,1.9,12.9,5.4c7.1,7.1,7.1,18.8,0,25.9C132.8,136.1,128.3,138,123.4,138z M123.4,102.4c-4.6,0-9,1.8-12.2,5.1
			c-6.7,6.7-6.7,17.7,0,24.5l0,0c3.3,3.3,7.6,5.1,12.2,5.1s9-1.8,12.2-5.1c6.7-6.7,6.7-17.7,0-24.5
			C132.3,104.2,128,102.4,123.4,102.4z"/>
	</g>
	<g>
		<g>
			<circle class="st2" cx="61.3" cy="65" r="17.4"/>
			<path class="st0" d="M61.3,82.8c-9.8,0-17.9-8-17.9-17.8s8-17.8,17.9-17.8c9.8,0,17.8,8,17.8,17.8S71.2,82.8,61.3,82.8z
				 M61.3,48.1c-9.3,0-16.9,7.6-16.9,16.9s7.6,16.9,16.9,16.9S78.2,74.3,78.2,65S70.6,48.1,61.3,48.1z"/>
		</g>
		<g>
			<path class="st3" d="M61.3,79c-3.7,0-7.2-1.4-9.9-4.1c-0.2-0.2-0.2-0.5,0-0.7c0.2-0.2,0.5-0.2,0.7,0c2.5,2.4,5.7,3.8,9.2,3.8
				c7.2,0,13-5.9,13-13c0-2.1-0.5-4.1-1.4-5.9c-0.1-0.2,0-0.5,0.2-0.7c0.2-0.1,0.5,0,0.7,0.2c1,2,1.5,4.1,1.5,6.4
				C75.4,72.7,69.1,79,61.3,79z"/>
		</g>
		<g>
			<path class="st3" d="M48.3,69.1c-0.2,0-0.4-0.1-0.5-0.4c-0.3-1.2-0.5-2.5-0.5-3.7c0-7.7,6.3-14,14-14c3,0,5.9,1,8.4,2.8
				c0.2,0.2,0.3,0.5,0.1,0.7c-0.2,0.2-0.5,0.3-0.7,0.1c-2.3-1.7-4.9-2.6-7.8-2.6c-7.2,0-13,5.9-13,13c0,1.2,0.2,2.3,0.5,3.5
				c0.1,0.3-0.1,0.5-0.3,0.6C48.4,69.1,48.3,69.1,48.3,69.1z"/>
		</g>
		<g>
			<g>
				<path class="st3" d="M61.3,59.6c-0.6,0-1-0.4-1-1v-2.4c0-0.6,0.4-1,1-1s1,0.4,1,1v2.4C62.3,59.2,61.9,59.6,61.3,59.6z"/>
			</g>
			<g>
				<path class="st3" d="M61.3,74.8c-0.6,0-1-0.4-1-1v-2.4c0-0.6,0.4-1,1-1s1,0.4,1,1v2.4C62.3,74.3,61.9,74.8,61.3,74.8z"/>
			</g>
			<g>
				<path class="st3" d="M64.8,61.2c-0.6-0.9-1.9-1.5-3.3-1.5c-1.8,0-3.1,0.8-3.1,2.1c0,1.3,1.5,1.7,3.3,2c2.8,0.4,5.4,1.2,5.4,4.3
					c0,3.1-2.8,4.3-5.6,4.3c-2.6,0-4.6-0.8-5.8-3.1l1.6-1.1c1,1.7,2.6,2.3,4.2,2.3c1.6,0,3.4-0.6,3.4-2.3c0-1.5-1.6-2-3.4-2.3
					c-2.7-0.4-5.2-1.1-5.2-4c0-2.9,2.8-4,5.2-4c1.9,0,3.9,0.5,5,2.3L64.8,61.2z"/>
			</g>
		</g>
	</g>
	<g>
		<g>
			<circle class="st1" cx="83.1" cy="81.2" r="17.4"/>
			<path class="st3" d="M83.1,99.1c-9.8,0-17.9-8-17.9-17.8s8-17.8,17.9-17.8c9.8,0,17.8,8,17.8,17.8S92.9,99.1,83.1,99.1z
				 M83.1,64.4c-9.3,0-16.9,7.6-16.9,16.9s7.6,16.9,16.9,16.9S100,90.5,100,81.2S92.4,64.4,83.1,64.4z"/>
		</g>
		<g>
			<g>
				<path class="st3" d="M84.3,74.6c2.5,0,4.4,1.2,4.4,3.8c0,1.1-0.6,2.1-1.8,2.6c1.6,0.5,2.2,2.1,2.2,3.1c0,2.9-2.3,3.8-4.8,3.8
					c-2,0-3.9,0-6,0V74.6H84.3z M80.4,80.1h3.9c1.6,0,2.3-0.6,2.3-1.7c0-0.9-0.8-1.9-2.4-1.9h-3.9V80.1z M80.4,85.9h3.9
					c1.2,0,2.8-0.4,2.8-1.8c0-1.4-1.5-2.1-2.7-2.1c-1.3,0-2.6,0-3.9,0V85.9z"/>
			</g>
			<g>
				<path class="st3" d="M81,76.3c-0.6,0-1-0.4-1-1V73c0-0.6,0.4-1,1-1c0.6,0,1,0.4,1,1v2.3C82,75.8,81.5,76.3,81,76.3z"/>
			</g>
			<g>
				<path class="st3" d="M81,90.5c-0.6,0-1-0.4-1-1v-2.3c0-0.6,0.4-1,1-1c0.6,0,1,0.4,1,1v2.3C82,90,81.5,90.5,81,90.5z"/>
			</g>
			<g>
				<path class="st3" d="M85,76.3c-0.6,0-1-0.4-1-1V73c0-0.6,0.4-1,1-1c0.6,0,1,0.4,1,1v2.3C86,75.8,85.5,76.3,85,76.3z"/>
			</g>
			<g>
				<path class="st3" d="M85,90.5c-0.6,0-1-0.4-1-1v-2.3c0-0.6,0.4-1,1-1c0.6,0,1,0.4,1,1v2.3C86,90,85.5,90.5,85,90.5z"/>
			</g>
		</g>
		<g>
			<path class="st3" d="M83.1,95.3c-3.7,0-7.2-1.4-9.9-4.1c-0.2-0.2-0.2-0.5,0-0.7c0.2-0.2,0.5-0.2,0.7,0c2.5,2.4,5.7,3.8,9.2,3.8
				c7.2,0,13-5.9,13-13c0-2.1-0.5-4.1-1.4-5.9c-0.1-0.2,0-0.5,0.2-0.7c0.2-0.1,0.5,0,0.7,0.2c1,2,1.5,4.1,1.5,6.4
				C97.1,89,90.8,95.3,83.1,95.3z"/>
		</g>
		<g>
			<path class="st3" d="M70,85.3c-0.2,0-0.4-0.1-0.5-0.4c-0.3-1.2-0.5-2.5-0.5-3.7c0-7.7,6.3-14,14-14c3,0,5.9,1,8.4,2.8
				c0.2,0.2,0.3,0.5,0.1,0.7c-0.2,0.2-0.5,0.3-0.7,0.1c-2.3-1.7-4.9-2.6-7.8-2.6c-7.2,0-13.1,5.9-13.1,13c0,1.2,0.2,2.3,0.5,3.5
				c0.1,0.3-0.1,0.5-0.3,0.6C70.1,85.3,70.1,85.3,70,85.3z"/>
		</g>
	</g>
	<g>
		<polygon class="st1" points="126.7,125.7 117.3,125.7 117.3,129 110.6,123.7 117.3,118.4 117.3,121.3 126.7,121.2 		"/>
		<path class="st3" d="M117.7,129.7l-7.7-6l7.7-6v3.2l9.4,0v5.2l-9.4,0V129.7z M111.2,123.7l5.7,4.5v-2.9l9.4,0v-3.7l-9.4,0v-2.4
			L111.2,123.7z M126.7,125.7L126.7,125.7L126.7,125.7z"/>
	</g>
	<g>
		<polygon class="st1" points="120,117.7 129.4,117.7 129.4,120.9 136.2,115.7 129.4,110.4 129.4,113.2 120,113.2 		"/>
		<path class="st3" d="M129.1,121.7v-3.6l-9.4,0v-5.2l9.4,0v-3.2l7.7,6L129.1,121.7z M120.4,117.3l9.4,0v2.9l5.7-4.5l-5.7-4.5v2.4
			l-9.4,0V117.3z"/>
	</g>
</g>
</svg>
