<?xml version="1.0" encoding="utf-8"?>
<!-- Generator: Adobe Illustrator 22.1.0, SVG Export Plug-In . SVG Version: 6.00 Build 0)  -->
<svg version="1.1" id="Capa_1" xmlns="http://www.w3.org/2000/svg" xmlns:xlink="http://www.w3.org/1999/xlink" x="0px" y="0px"
	 viewBox="0 0 38.9 38.9" style="enable-background:new 0 0 38.9 38.9;" xml:space="preserve">
<path d="M37.2,31.4c-1.2-2.3-5-3.7-10.3-5.6c-0.7-0.3-1.5-0.6-2.3-0.9v-4.2c0.5-0.6,1.9-2.3,2-5c0.4-0.3,0.7-0.8,0.8-1.5
	c0.3-1.1,0.1-2.5-0.7-3.3c0.1-0.1,0.1-0.3,0.2-0.5c0.6-1.6,1.8-4.5,1.3-6.7C27.8,1.1,24.1,0,20.6,0c-2.5,0-5.6,0.6-6.5,2.4
	c-1,0.1-1.7,0.5-2.2,1.1c-1.4,1.8-0.4,5.2,0.2,7c0,0.1,0.1,0.3,0.1,0.4c-0.9,0.7-1,2.1-0.7,3.3c0.2,0.7,0.5,1.2,0.8,1.5
	c0.1,2.6,1.4,4.2,2,4.7v4.5c-0.8,0.3-1.6,0.6-2.3,0.9c-5.3,1.9-9.1,3.3-10.2,5.6C0,34.7,0,38.2,0,38.3c0,0.4,0.3,0.6,0.6,0.6h37.7
	c0.4,0,0.6-0.3,0.6-0.6C38.9,38.2,38.9,34.7,37.2,31.4z"/>
</svg>
